# xmcd CD database file
#
# Track frame offsets:
#	150
#	30176
#	50917
#	67568
#	100995
#	134863
#	167779
#	189578
#	217760
#
# Disc length: 3338 seconds
#
# Revision: 0
# Processed by: cddbd v1.5.2PL0 Copyright (c) Steve Scherf et al.
# Submitted via: CDex 1.51
#
DISCID=790d0809
DTITLE=Kitaro - Celestial Scenery 03-Faraway Land
DYEAR=2011
DGENRE=New Age
TTITLE0=Dawn-Rising Sun
TTITLE1=Legend Of The Road
TTITLE2=Mysterious Island
TTITLE3=Aura
TTITLE4=Tibet
TTITLE5=The Clouds
TTITLE6=Shimmering Horizon
TTITLE7=Everlasting Road
TTITLE8=Journey To A Fantasy
EXTD=YEAR: 2011
EXTT0=
EXTT1=
EXTT2=
EXTT3=
EXTT4=
EXTT5=
EXTT6=
EXTT7=
EXTT8=
PLAYORDER=
